<svg height="804" xmlns:ev="http://www.w3.org/2001/xml-events" xmlns:xlink="http://www.w3.org/1999/xlink" width="1133" viewBox="0 0 1133 804" xmlns="http://www.w3.org/2000/svg"><g id="page1" transform="translate(5,5)"><g transform="translate(679.26,332.94)"><g><path id="shape1" fill="#ffffff" d="M66,33C66,14.8,51.2,0,33,0C14.8,0,0,14.8,0,33C0,51.2,14.8,66,33,66C51.2,66,66,51.2,66,33z"/></g><path id="shape2" fill="url(#lg1)" transform="translate(1.19,0.27)" d="M.8,44C1.1,44,.8,44,1.6,44.4C1.8,44.6,2.7,45.6,2.9,45.8C3.1,46,3.9,46.3,5.5,48.8C5.5,48.8,7.1,49.3,7.4,49.7C7.6,50.1,8.2,49.5,8.6,49.7C9,49.9,12,50.3,12,53.4C12,53.4,12.1,54.4,13.2,55.6C14.3,56.7,14.2,57.7,14.2,58.4C14.2,59.2,16.6,61.2,18.4,62.2C20.1,63.3,22.1,64.3,22.2,64.3C22.3,64.3,7.3,61,.8,44C.8,43.8,.8,44,.8,44zM48.4,46.6C48.4,46.6,49.2,47.7,48.8,47.9C48.4,48.1,48.4,49.2,48.4,48.5C48.4,48.5,48.3,50.1,47.8,51.1C47.3,52,47.9,52.6,46.9,52.9C45.9,53.1,46,52.4,46,51.8C46,51.3,46.6,50.1,46.4,49.6C46.3,49.2,46.5,48.4,47.1,48.1C47.8,47.9,48,47,48.4,46.6zM15.9,18.3C17.1,18.3,17.4,18,17.4,17.7C17.4,17.4,17.4,17,17.7,16.7C17.9,16.4,18.2,16.3,18.2,16.3C18.2,16.3,18.5,16.4,18.2,17.1C17.9,17.7,17.7,18,17.7,18C18.6,18.1,19.1,17.8,19.1,18C19.1,18.1,19.6,17.7,19.8,17.7C20,17.7,20.3,17.1,20.3,17.1C20.3,17.1,20.1,16.9,20.3,16.7C20.4,16.5,20,16.1,20,16.1C20,16.1,19.7,15.7,19.5,15.3C19.2,14.8,19.4,15.3,19.2,14.8C19.1,14.4,18.5,13.6,18.6,13.6C18.8,13.6,18.5,13.6,18.5,13.6C18.5,13.6,18.2,13.3,17.8,13.6C17.5,13.8,17.4,13.7,17.4,14.2C17.4,14.7,17.4,14.8,17.4,15.1C17.4,15.5,16.9,15.6,16.8,15.8C16.7,16.1,16.3,16.3,16.1,16.3C15.9,16.3,15.3,16.4,15.7,16.7C16,17.1,16.3,17.1,16.4,17.1C16.5,17.1,15.9,17.9,15.9,18.1C15.9,18.3,15.9,18.6,15.9,18.3zM37.7,26.7C37.8,27.3,38.1,27.9,38.3,27.9C38.4,28,39.2,28.3,39.2,28.6C39.2,28.9,39.7,29.4,39.7,29.4C40.2,30,40.9,31,40.9,31.4C40.9,31.8,41.3,31.8,41.3,31.7C41.3,31.7,41.9,31.9,41.9,32.1C41.9,32.4,42.3,33.5,43,33.5C43.7,33.5,44.1,34.3,44.1,34.3C44.8,34.7,44.3,36,46,35.2C46.6,34.9,47,34.3,47,34.3L48.3,33.9C48.3,33.9,48.5,34.2,48.3,35.2C48,36.2,48.1,37.3,47.8,37.5C47.5,37.8,47.1,38.1,46.7,39C46.3,39.9,45.7,40.7,45.3,41.2C45,41.8,43.9,43,43.9,44C43.9,45,43.7,45.4,44.3,46C44.8,46.6,44.8,46.8,44.8,47.7C44.8,48.7,45,49.3,44.1,49.8C43.2,50.4,42.7,51.1,42.7,51.4C42.7,51.7,43.1,52.9,42.2,54.2C41.8,54.9,42.2,54.2,42.2,54.2C42.2,54.2,42.2,54.9,41.3,56.6C40.5,58.3,39.9,58.1,39.2,58.3C38.5,58.5,37.9,59.2,37.9,59.2C37.9,59.2,37.7,59.3,36.9,57.8C36.1,56.2,36.3,57.8,35.9,57.2C35.5,56.6,35,55.5,34.9,55.3C34.9,55.2,34.7,55.1,34.4,54.4C34.1,53.8,33.9,53.9,33.5,53.5C33.1,53.1,32.7,51.6,32.9,49.9C32.9,49.5,32.3,48.3,31.7,47.5C31.1,46.8,30.4,46.3,29.8,46C29.2,45.7,29.1,44.6,29.1,44.2C29,43.8,28.2,42.3,27.6,42.6C26.9,43,26.7,43.2,26.4,42.4C26,41.6,23.8,43.5,23.3,44C22.9,44.5,22.3,43.7,20.8,44.4C19.3,45.1,19.9,44.4,18.4,44C16.9,43.6,17.7,42.7,16,42C14.3,41.2,14.9,40.8,14.9,40.4C14.9,40,15.1,38.3,14.5,37.3C14,36.4,14.2,35.4,14.7,34.3C15.1,33.1,15.5,32.2,16.1,31.8C16.7,31.4,15.9,31.1,16.1,30.4C16.3,29.7,17.7,28.8,17.7,27.7C17.7,26.7,17.9,28.1,18.7,27.7C19.5,27.3,20.5,27,21.1,26.3C21.7,25.7,22.3,25.6,23,25.4C23.7,25.3,24.7,24.9,25.1,24.9C25.5,24.9,25.6,25.6,25.7,25.8C25.7,25.9,25,26.4,25.7,26.6C26.4,26.8,27.5,27.1,27.9,27.1C28.3,27.1,30.5,28.1,30.7,27.1C31,25.9,31.7,25.9,32.5,26.1C33.3,26.3,33.7,26.5,34.4,26.1C35.1,25.8,36,25.4,37.1,25.4C38.3,25.4,37.9,22.7,37.9,22.2C37.9,21.8,37.3,21.7,36.9,22.1C36.5,22.5,36.7,22.9,35.9,22.6C35.1,22.2,34.9,23.5,33.7,22.9C32.5,22.2,33.3,21.6,32.2,21.2C31.2,20.9,30.4,22,30.7,22.1C31.1,22.2,32.6,24.3,31.1,23.4C29.5,22.6,30.1,21.6,29.6,21.9C29.1,22.2,29.5,21.6,28.8,21.1C27.9,20.4,26.6,20.5,26.6,20C26.6,19.5,25.9,19,25.7,19.4C25.5,19.8,25.6,20.6,26.6,21C27.6,21.4,28.3,21.7,28.4,21.9C28.6,22.1,28.6,22.2,28.1,22.2C27.7,22.2,28.7,22.9,28.2,23.4C27.7,23.9,27.1,24.1,27.3,24C27.6,24,28.7,25.3,26.6,24.5C24.4,23.7,26.5,24,27,23.7C27.6,23.4,29.1,22.5,26.1,22.2C23,22,25.1,22,24.6,21.2C24.1,20.4,23.3,21.4,23.3,21.6C23.3,21.7,22.3,21.9,21.9,21.9C21.5,21.9,21.7,23.4,20.8,24C19.9,24.7,20.5,25.2,20.3,25.8C20.1,26.3,19.3,27.4,17.2,26.6C15.1,25.8,16.8,25.9,16.3,24.9C15.7,23.5,17.6,22.4,17.4,22.6C17.4,22.6,19.7,21.6,19.3,21C18.9,20.3,18.9,20.2,18.1,20.2C17.2,20.2,17.6,19.2,18.7,19C19.9,18.8,20,17.6,20.9,16.8C21.8,16.1,21.1,15.9,22.3,15.5C23.5,15.1,22.1,13.5,23.5,13.1C24.2,12.9,24.3,14.5,24.6,12.9C24.8,12.3,23.9,11.7,23.7,11.5C23.5,11.3,22.8,13.4,22.3,12.8C21.8,12.3,21.3,12,21.8,11.2C22.1,10.7,24.1,8.7,24.3,7.9C24.5,7.2,24.8,6.5,26.1,5.8C27.3,5,29.8,3.7,30.7,4.2C31.7,4.7,32.3,5.4,33.2,4C33.6,3.3,33.8,3.1,33.9,3.1C32.9,2.4,32.4,1.8,32.2,1.3C31.9,.7,33.1,.5,33,1.3C32.8,3.1,36.9,2.8,36.9,2.8C36.9,2.8,35.7,2.5,35.5,2.1C35.3,1.6,36.3,1.7,37.1,1.9C37.9,2.1,37.6,1.4,36.9,1.3C36.2,1.1,36.6,.4,36.5,.6C36.3,.7,35.6,.5,35.6,.5C35.3,0,39.1,0,44.8,2.4C46.9,3.3,49.6,4.9,51.9,6.5C56.2,9.8,58.9,13.5,60.6,16.8C62.6,20.4,63.2,22.4,63.8,24.7C63.9,25.1,63.4,24.6,63.5,24.9C63.5,25.2,64.4,28.9,64.4,29.6C64.4,30.3,64.2,31.2,64.2,31.5C64.2,31.8,64.1,30.2,63.5,29.6C62.8,28.9,63.5,31.5,63.5,31.5C63.5,31.5,64.4,34.7,64.4,35.3C64.4,35.8,64.2,37.7,64.2,36.4C64.2,36.4,64.1,39.9,63.8,40C63.5,40,64,36.5,63.1,34.3C62.7,33.3,63.8,34.7,63.8,34.3C63.8,33.9,63.1,31.5,63.1,31.2C63,29.6,63.2,28.6,63,28.1C62.7,27.6,62.5,27.8,61.8,26.4C61.4,25.3,60.8,24.8,61,24.9C61,24.9,60.2,23.9,60,25.6C59.8,26.9,59.5,28.4,59.1,29.2C58.4,30.6,59.5,32.9,58.9,33.3C58.1,33.7,58.1,32.1,57.7,31.5C57.7,31.5,56.3,28.5,56.3,28C56.3,27.4,56.2,27.1,56,27.1C55.6,27.1,55.3,27.3,54.7,26.8C54.3,26.5,54.1,26.3,53.9,26.2C53.9,26.2,53.9,26.2,53.9,26.2C54,26.1,53.2,26.1,53.2,25.4C53.2,24.7,51,26.4,50,25.9C49,25.4,49.2,25.2,48.9,25.2C48.7,25.2,48.4,25.2,48.1,25.4C47.9,25.7,47.3,25.7,46.8,25.4C46.3,25.2,45.3,23.6,44.7,24.6C44.7,24.6,45,25.8,46,26.3C46.5,26.5,48,27.1,48.9,26.2C49.5,25.6,48.9,26.5,50,26.8C51.1,27.1,50.8,29.2,49.5,30.5C48.1,31.8,48.2,32.4,47.4,32.8C46.7,33.2,45.8,33.7,45.5,34.1C45.1,34.4,44.6,34.8,44.1,32.7C43.7,30.6,43.9,31.2,42.8,31C41.7,30.7,41.5,29.4,41,29.1C40.5,28.7,38.6,26.8,37.7,26.7zM42.5,15.1C42.3,15.1,42.4,15,42,15.3C41.6,15.5,41.4,15.6,41.3,15.7C41.3,15.9,41.5,16.1,41.3,16.3C41.2,16.5,41.1,17,41.3,17C41.5,17,42,17.1,42,17.3C42,17.4,42.5,17.6,42.5,17.7C42.5,17.9,42.8,18.1,42.8,18.1C42.8,18.1,42.8,18.1,42.8,18.3C42.8,18.5,43.3,19,43.3,19C43.3,19,43.3,19.5,43.3,19.6C43.3,19.8,43.7,20.1,44.1,20.1C44.5,20.1,45.1,20.1,45.3,20.1C45.5,20.1,45.5,20.1,45.6,19.9C45.6,19.6,45.4,19.1,45.1,18.9C44.9,18.6,44.7,18.1,44.7,18.1C45.2,17.6,44.7,17.2,44.7,17.2C43.7,17.1,43.1,16.8,42.9,16.8C42.7,16.8,42.8,16.1,42.8,16.1L43.9,15.4C43.7,15.1,43.6,15.2,43.3,14.9C43,14.7,42.8,14.7,42.5,15.1zM33.9,17.7C33.9,17.7,33.3,18,33.3,18.4C33.3,18.8,33.4,18.5,33.3,18.7C33.1,18.9,33.1,19,33.3,19.8C33.5,20.5,33.9,20.1,33.9,20.1C33.9,20.1,35.4,19.7,35.7,19.4C35.9,19.1,36.4,19.2,36.7,19.2C36.9,19.2,37.6,19,37.9,19C38.2,19,39.1,18.9,39.5,18.4C40,17.9,38.7,18,38.2,17.7C37.7,17.5,36.7,17.5,36.4,17.5C36.1,17.5,35.2,18,35.2,18C34.7,17.7,36,16.4,34.9,17C34.3,17.3,34.1,17.4,33.9,17.7zM34.1,3.2C34.1,3.2,34.1,3,33.9,3.1C34,3.1,34.1,3.2,34.1,3.2zM28.2,7.3C28.2,7.3,27.1,7.3,27.1,7.6C27.1,8,26.2,9.4,26,9.6C25.8,9.8,27.4,10.7,26.3,11.6C25.3,12.5,26.5,13,26.5,13C25.6,13.3,25.4,13.7,25.2,13.7C25,13.7,24.9,14.5,24.9,14.5C24.9,14.5,26.8,13.6,27.1,13.6C27.5,13.6,27.9,13.5,27.9,12.5C27.9,11.5,28.3,11.3,28.4,11.4C28.5,11.4,29,10.8,29,10.8C29,10.8,29.7,9.9,30.4,9.6C31.1,9.2,30.6,9,29,10C27.4,11,27.5,9.7,27.5,9.3C27.5,8.8,27.7,8.2,27.9,7.9C28.2,7.6,28.2,7.3,28.2,7.3zM24.4,.8C24.4,.8,21.8,1.8,21.3,2C20.8,2.3,20.9,2.8,20.1,2.8C19.3,2.8,19.3,2.9,19,3.4C18.8,3.9,18.4,4.1,18,4.2C17.6,4.4,17.4,4.5,17.2,4.9C17.1,5.3,16.1,6,15.8,6C15.4,6,15.3,6.3,15.3,6.6C15.3,6.8,15.4,6.9,14.1,7.8C12.8,8.7,12.2,9,11.7,9.3C10.6,10.1,10.6,10.3,9.4,11.2C7.9,12.4,7.4,14.5,6.9,15C6.4,15.5,6.3,14.2,6.9,12.9C7.4,11.9,9.1,9.7,9.7,9C10.3,8.4,13.7,5.5,14.1,5.1C14.4,4.7,21.2,1,24.4,.6C27.6,.3,24.4,.8,24.4,.8zM3.7,15.9C3.7,15.9,3.2,17.1,2.8,18C2.6,18.4,2.9,19.7,2.6,20.4C2.2,21.1,2.2,21.6,2.2,21.6C2.2,21.6,1.8,22.8,1.8,23.6C1.8,24.4,1,24.7,1,24C1,23.4,1.2,22.3,1.5,21.8C1.7,21,.9,22.9,.9,23L.3,25.7C.1,25.9,0,25.3,0,25.3C0,25.3,.7,19.6,4.7,14C4.9,13.8,3.7,15.9,3.7,15.9z"/></g><g transform="translate(434.26,370.94)"><g><path id="shape3" fill="#696969" transform="translate(14.33,0)" d="M4.5,0L154.8,0C157.3,0,159.3,1.9,159.3,4.2L159.3,95.8C159.3,98.1,157.3,100,154.8,100L4.5,100C2,100,0,98.1,0,95.8L0,4.2C0,1.9,2,0,4.5,0z"/><path id="shape4" fill="#000000" transform="translate(0,105.57)" d="M0,0L4.1,2.4L184.5,2.4L188,0L0,0z"/></g><path id="shape5" fill="#30c9f7" transform="translate(21.37,6.81)" d="M0,0L145.3,0L145.3,86.1L0,86.1L0,0z"/><path id="shape6" fill="#9b9b9b" stroke="#9b9b9b" transform="translate(0.18,99.73)" d="M0,0L187.6,0L187.6,5.8L0,5.8L0,0z"/><path id="shape7" fill="#eeeeee" transform="translate(74.03,99.73)" d="M0,0L39.9,0L39.9,3.2L0,3.2L0,0z"/></g><g transform="translate(484.76,392.44)"><g><path id="shape8" fill="#ffffff" stroke="#ffffff" d="M12.8,6.8C12.8,6.8,14.5,5.3,17.4,4.7L17.7,1.3C17.7,1.3,17.8,.1,19.1,0L24.7,0C24.7,0,25.8,.2,25.8,1.2C25.8,2.2,26.1,4.7,26.1,4.7C26.1,4.7,30.3,6.1,30.8,6.8L33.7,4.2C33.7,4.2,34.1,3.8,35.3,4.5C36.8,5.5,39.2,8.6,39.2,8.6C39.2,8.6,39.7,9.4,39,10.3C38.2,11.2,36.8,12.7,36.8,12.7C36.8,12.7,38.6,15.9,38.7,17.6L42.5,17.8C42.5,17.8,43.6,18,43.4,19.6C43.4,19.6,43.6,23.9,43.4,24.3C43.3,24.6,43.4,25.8,42.1,25.8L38.6,26.1C38.6,26.1,38.3,28.6,36.8,30.6L39.1,33.5C39.1,33.5,39.9,34,39.2,35.2C39.2,35.2,37.6,37.4,34.9,39.3C34.9,39.3,34,40.1,33.1,38.9L30.7,36.8C30.7,36.8,27.7,38.5,26.1,38.7C26.1,38.7,26,39.6,25.8,42.3C25.8,42.3,25.8,43.5,24.1,43.5C24.1,43.5,19.8,43.6,19.1,43.5C19.1,43.5,17.7,43.6,17.7,41.9L17.5,38.9C17.5,38.9,13.1,37.4,12.8,36.7L10.4,39.1C10.4,39.1,9.5,40.3,8.5,39.2C8.5,39.2,4.9,36.4,4.3,34.9C4.3,34.9,3.9,34,4.6,33.4L6.5,31.1C6.5,31.1,6.7,31,6.4,30.1C6.4,30.1,4.9,26.8,4.9,26.1L1.4,25.7C1.4,25.7,.2,26,.2,24.1C.2,24.1,-0.2,20.9,.2,18.9C.2,18.9,.4,17.5,1.5,17.5L4.9,17.5C4.9,17.5,5.4,15,6.8,12.7L4.2,9.9C4.2,9.9,3.6,9.1,4.7,8C4.7,8,6.7,5.3,8.5,4.4C8.5,4.4,9.5,3.4,10.4,4.5L12.8,6.8zM0,0M34.8,21.8C34.8,29,29,34.8,21.8,34.8C14.5,34.8,8.7,29,8.7,21.8C8.7,14.5,14.5,8.7,21.8,8.7C29,8.7,34.8,14.5,34.8,21.8zL34.8,21.8z"/></g><path id="shape9" fill="#00b0f0" stroke="#00b0f0" transform="translate(12.92,12.87)" d="M0,8.8C0,6.4,.9,4.3,2.6,2.6C4.3,.9,6.4,0,8.8,0C11.3,0,13.3,.9,15.1,2.6C16.8,4.3,17.7,6.4,17.7,8.8C17.7,11.3,16.8,13.3,15.1,15.1C13.3,16.8,11.3,17.6,8.8,17.6C6.4,17.6,4.3,16.8,2.6,15.1C.9,13.3,0,11.3,0,8.8zM3.5,8.8C3.5,10.3,4,11.5,5.1,12.6C6.1,13.6,7.4,14.1,8.8,14.1C10.3,14.1,11.5,13.6,12.6,12.6C13.6,11.5,14.1,10.3,14.1,8.8C14.1,7.4,13.6,6.1,12.6,5.1C11.5,4,10.3,3.5,8.8,3.5C7.4,3.5,6.1,4,5.1,5.1C4,6.1,3.5,7.4,3.5,8.8z"/></g><path id="shape10" fill="#ffffff" stroke="#ffffff" transform="translate(532.26,392.44)" d="M13.7,1.2L14.6,4.5C15.6,5.4,15.9,5.5,16.2,5.6L17.3,5.6L20.3,4L21.5,5.2L19.9,8.2L19.9,9.3C20,9.6,20.1,9.9,20.2,10.1L24.3,11.8L24.3,13.7L21,14.6C20.1,15.6,20,15.9,19.9,16.2L19.9,17.3L21.5,20.3L20.3,21.5L17.3,19.9L16.2,19.9C15.9,20,15.6,20.1,15.4,20.2L13.7,24.3L11.8,24.3L10.9,21C9.9,20.1,9.6,20,9.3,19.9L8.2,19.9L5.2,21.5L4,20.3L5.6,17.3L5.6,16.2C5.5,15.9,5.4,15.6,5.3,15.4L1.2,13.7L1.2,11.8L4.5,10.9C5.4,9.9,5.5,9.6,5.6,9.3L5.6,8.2L4,5.2L5.2,4L8.2,5.6L9.3,5.6C9.6,5.5,9.9,5.4,10.1,5.3L11.8,1.2L13.7,1.2M12.8,17.6C15.4,17.6,17.6,15.4,17.6,12.8C17.6,10.1,15.4,7.9,12.8,7.9C10.1,7.9,7.9,10.1,7.9,12.8C7.9,15.4,10.1,17.6,12.8,17.6M14.6,0L10.9,0L9.7,4.2C9.4,4.3,9.1,4.4,8.8,4.5L5,2.4L2.4,5L4.5,8.8C4.4,9.1,4.3,9.4,4.2,9.7L0,10.9L0,14.6L4.2,15.8C4.3,16.1,4.4,16.4,4.5,16.7L2.4,20.5L5,23.1L8.8,21C9.1,21.1,9.4,21.2,9.7,21.3L10.9,25.5L14.6,25.5L15.8,21.3C16.1,21.2,16.4,21.1,16.7,21L20.5,23.1L23.1,20.5L21,16.7C21.1,16.4,21.2,16.1,21.3,15.8L25.5,14.6L25.5,10.9L21.3,9.7C21.2,9.4,21.1,9.1,21,8.8L23.1,5L20.5,2.4L16.7,4.6C16.4,4.4,16.1,4.3,15.8,4.2L14.6,0M12.8,16.4C14.8,16.4,16.4,14.8,16.4,12.8C16.4,10.7,14.8,9.1,12.8,9.1C10.7,9.1,9.1,10.7,9.1,12.8C9.1,14.8,10.7,16.4,12.8,16.4"/><g transform="translate(631.26,406.83)"><path id="shape11" fill="#30c9f7" stroke="#00b0f0" transform="translate(0,24.58)" d="M0,2.3C0,1.6,.2,1.1,.7,.7C1.1,.2,1.6,0,2.3,0C2.9,0,3.4,.2,3.9,.7C4.3,1.1,4.5,1.6,4.5,2.3C4.5,2.9,4.3,3.4,3.9,3.9C3.4,4.3,2.9,4.5,2.3,4.5C1.6,4.5,1.1,4.3,.7,3.9C.2,3.4,0,2.9,0,2.3zM.9,2.3C.9,2.6,1,3,1.3,3.2C1.6,3.5,1.9,3.6,2.3,3.6C2.6,3.6,3,3.5,3.2,3.2C3.5,3,3.6,2.6,3.6,2.3C3.6,1.9,3.5,1.6,3.2,1.3C3,1,2.6,.9,2.3,.9C1.9,.9,1.6,1,1.3,1.3C1,1.6,.9,1.9,.9,2.3z"/><path id="shape12" fill="#30c9f7" stroke="#00b0f0" transform="translate(21.47,13.46)" d="M0,2.3C0,1.6,.2,1.1,.7,.7C1.1,.2,1.6,0,2.3,0C2.9,0,3.4,.2,3.9,.7C4.3,1.1,4.5,1.6,4.5,2.3C4.5,2.9,4.3,3.4,3.9,3.9C3.4,4.3,2.9,4.5,2.3,4.5C1.6,4.5,1.1,4.3,.7,3.9C.2,3.4,0,2.9,0,2.3zM.9,2.3C.9,2.6,1,3,1.3,3.2C1.6,3.5,1.9,3.6,2.3,3.6C2.6,3.6,3,3.5,3.2,3.2C3.5,3,3.6,2.6,3.6,2.3C3.6,1.9,3.5,1.6,3.2,1.3C3,1,2.6,.9,2.3,.9C1.9,.9,1.6,1,1.3,1.3C1,1.6,.9,1.9,.9,2.3z"/><path id="shape13" fill="none" stroke="#30c9f7" transform="matrix(0.88,-0.48,0.48,0.88,4.1,25.7)" stroke-width="2.66667" d="M0,0L20.7,0"/><path id="shape14" fill="#30c9f7" stroke="#00b0f0" transform="translate(33.41,19.6)" d="M0,2.3C0,1.6,.2,1.1,.7,.7C1.1,.2,1.6,0,2.3,0C2.9,0,3.4,.2,3.9,.7C4.3,1.1,4.5,1.6,4.5,2.3C4.5,2.9,4.3,3.4,3.9,3.9C3.4,4.3,2.9,4.5,2.3,4.5C1.6,4.5,1.1,4.3,.7,3.9C.2,3.4,0,2.9,0,2.3zM.9,2.3C.9,2.6,1,3,1.3,3.2C1.6,3.5,1.9,3.6,2.3,3.6C2.6,3.6,3,3.5,3.2,3.2C3.5,3,3.6,2.6,3.6,2.3C3.6,1.9,3.5,1.6,3.2,1.3C3,1,2.6,.9,2.3,.9C1.9,.9,1.6,1,1.3,1.3C1,1.6,.9,1.9,.9,2.3z"/><path id="shape15" fill="#30c9f7" stroke="#00b0f0" transform="translate(57.47,0)" d="M0,2.3C0,1.6,.2,1.1,.7,.7C1.1,.2,1.6,0,2.3,0C2.9,0,3.4,.2,3.9,.7C4.3,1.1,4.5,1.6,4.5,2.3C4.5,2.9,4.3,3.4,3.9,3.9C3.4,4.3,2.9,4.5,2.3,4.5C1.6,4.5,1.1,4.3,.7,3.9C.2,3.4,0,2.9,0,2.3zM.9,2.3C.9,2.6,1,3,1.3,3.2C1.6,3.5,1.9,3.6,2.3,3.6C2.6,3.6,3,3.5,3.2,3.2C3.5,3,3.6,2.6,3.6,2.3C3.6,1.9,3.5,1.6,3.2,1.3C3,1,2.6,.9,2.3,.9C1.9,.9,1.6,1,1.3,1.3C1,1.6,.9,1.9,.9,2.3z"/><path id="shape16" fill="none" stroke="#30c9f7" transform="matrix(-0.84,-0.55,0.55,-0.84,34.1,20.3)" stroke-width="2.66667" d="M0,0L9.7,0"/><path id="shape17" fill="none" stroke="#30c9f7" transform="matrix(-0.74,0.67,-0.67,-0.74,58.2,3.4)" stroke-width="2.66667" d="M0,0L27.4,0"/></g></g></svg>